# xmcd CD database file
#
# Track frame offsets:
#	150
#	36582
#	69410
#	97570
#	117462
#	152310
#	176297
#	210750
#	245827
#	278867
#
# Disc length: 4197 seconds
#
# Revision: 0
# Processed by: cddbd v1.4PL0 Copyright (c) Steve Scherf et al.
# Submitted via: CDex 1.50beta10
#
DISCID=7b10630a
DTITLE=Paul Grabowsky Trio - PG3
DYEAR=1900
DGENRE=Jazz
TTITLE0=make it easy on yourself
TTITLE1=white chord dreaming
TTITLE2=beyond the black suit
TTITLE3=straight no chaser
TTITLE4=a quiet place
TTITLE5=dreiech
TTITLE6=squish
TTITLE7=trident
TTITLE8=bruce wayne
TTITLE9=star crossed lovers
EXTD=
EXTT0=
EXTT1=
EXTT2=
EXTT3=
EXTT4=
EXTT5=
EXTT6=
EXTT7=
EXTT8=
EXTT9=
PLAYORDER=
